<?xml version="1.0" encoding="UTF-8"?>
<svg xmlns="http://www.w3.org/2000/svg" viewBox="0 0 629.22 440.53">
  <defs>
    <style>.cls-1{fill:#0277bc;}.cls-2{fill:none;stroke:#fff;stroke-linecap:round;stroke-linejoin:round;stroke-width:9.73px;}</style>
  </defs>
  <title>PrimaryBigIcon_White</title>
  <g id="Layer_2" data-name="Layer 2">
    <g id="Layer_1-2" data-name="Layer 1">
      <path class="cls-1" d="M81.13,420A25.09,25.09,0,1,1,106.22,395,25.12,25.12,0,0,1,81.13,420Zm0-39.4A14.31,14.31,0,1,0,95.44,395,14.33,14.33,0,0,0,81.13,380.64Z"></path>
      <path class="cls-1" d="M200.45,440.53V394.9l0-.66A25.14,25.14,0,1,1,213,416.66l-1.76-1v19.6a5.3,5.3,0,0,1-5.3,5.29Zm25.09-59.89A14.31,14.31,0,1,0,239.85,395,14.33,14.33,0,0,0,225.54,380.64Z"></path>
      <path class="cls-1" d="M303,420.81a5.36,5.36,0,0,1-5.1-3.73l-.46-1.41-1.27.77A25.06,25.06,0,1,1,308.43,395v25.86Zm-19.71-40.17A14.31,14.31,0,1,0,297.64,395,14.33,14.33,0,0,0,283.33,380.64Z"></path>
      <path class="cls-1" d="M400.5,440.53A24.54,24.54,0,0,1,385,435c-.37-.32-1.17-1-5.45-5l2.88-3.61.12-.11a5.44,5.44,0,0,1,4.23-2.22c1.86,0,2.93.88,4.42,2.1a13.34,13.34,0,0,0,9.54,3.65A14.26,14.26,0,0,0,414.55,419l.67-2.6-2.37,1.28a25.1,25.1,0,0,1-37.25-21.95V369.86H381a5.46,5.46,0,0,1,5.39,5.39v20.49a14.31,14.31,0,0,0,28.62,0V375.25a5.46,5.46,0,0,1,5.39-5.39h5.39v45.58C425.78,430.94,412.66,440.53,400.5,440.53Z"></path>
      <path class="cls-1" d="M535.89,420.81a5.37,5.37,0,0,1-5.1-3.73l-.46-1.41-1.26.77A25.06,25.06,0,1,1,541.28,395v25.86Zm-19.7-40.17A14.31,14.31,0,1,0,530.5,395,14.33,14.33,0,0,0,516.19,380.64Z"></path>
      <path class="cls-1" d="M31.61,420A31.75,31.75,0,0,1,1.68,378a30.4,30.4,0,0,1,19.23-19.38,33.81,33.81,0,0,1,10.7-1.78,31.37,31.37,0,0,1,17.62,5.39,4.06,4.06,0,0,1,1.75,3,4.19,4.19,0,0,1-1.22,3.39l-4.23,4.24a20.8,20.8,0,0,0-13.92-5.28,23.2,23.2,0,0,0-8,1.45,19.56,19.56,0,0,0-11.45,11.41,21.46,21.46,0,0,0,2.25,20A21,21,0,0,0,45.57,404l4.23,4.24A4.19,4.19,0,0,1,51,411.62a4.11,4.11,0,0,1-1.81,3A31.35,31.35,0,0,1,31.61,420Z"></path>
      <path class="cls-1" d="M466.16,420A31.74,31.74,0,0,1,436.23,378a30.4,30.4,0,0,1,19.23-19.38,33.72,33.72,0,0,1,10.7-1.78,31.32,31.32,0,0,1,17.61,5.39,4,4,0,0,1,1.76,3,4.19,4.19,0,0,1-1.22,3.39l-4.23,4.24a20.82,20.82,0,0,0-13.92-5.28,23.2,23.2,0,0,0-8,1.45,19.54,19.54,0,0,0-11.45,11.41,21.46,21.46,0,0,0,2.25,20A21,21,0,0,0,480.12,404l4.23,4.24a4.15,4.15,0,0,1,1.21,3.37,4.09,4.09,0,0,1-1.8,3A31.38,31.38,0,0,1,466.16,420Z"></path>
      <path class="cls-1" d="M362,420.81a5.3,5.3,0,0,1-5.3-5.29V395a14.33,14.33,0,0,0-14.31-14.31c-.44,0-.88,0-1.33.06-7.28.65-13,7.13-13,14.76v20.06a5.3,5.3,0,0,1-5.3,5.29h-5.48V395.74c0-13.23,9.94-24.55,22.64-25.76.82-.08,1.64-.12,2.45-.12A25.11,25.11,0,0,1,367.51,395v25.86Z"></path>
      <path class="cls-1" d="M185.94,420a5.58,5.58,0,0,1-5.51-5.51V391.11a11.22,11.22,0,0,0-22.2-2.26,11.55,11.55,0,0,0-.23,2.26v23.42a5.51,5.51,0,1,1-11,0V391.11a11.22,11.22,0,0,0-22.2-2.26,11.55,11.55,0,0,0-.23,2.26v23.42A5.59,5.59,0,0,1,119,420h-5.51V391.11a22.26,22.26,0,0,1,38.13-15.59l.84.87.84-.87a22.26,22.26,0,0,1,38.13,15.59V420Z"></path>
      <path class="cls-1" d="M623.71,420a5.59,5.59,0,0,1-5.52-5.51V391.11a10.67,10.67,0,0,0-.23-2.25,11.22,11.22,0,0,0-22,0,11.54,11.54,0,0,0-.22,2.26v23.42a5.52,5.52,0,0,1-11,0V391.11a11.38,11.38,0,0,0-.23-2.25,11.22,11.22,0,0,0-22,0,11.4,11.4,0,0,0-.23,2.26v23.42A5.58,5.58,0,0,1,556.8,420h-5.52V391.11a22.26,22.26,0,0,1,38.13-15.59l.84.87.84-.87a22.26,22.26,0,0,1,38.13,15.59V420Z"></path>
      <rect class="cls-1" x="154.57" width="320.43" height="320.43" rx="44.61"></rect>
      <path class="cls-2" d="M294.05,240.38H212.2a9.75,9.75,0,0,1-9.75-9.76V162.35h36.42"></path>
      <path class="cls-2" d="M371.13,162.35h55.59v68.27a9.75,9.75,0,0,1-9.75,9.76H335.89"></path>
      <path class="cls-2" d="M348.28,166.12a34.48,34.48,0,1,1-.58-19.81"></path>
      <path class="cls-2" d="M283.11,221c-12.87-23.72-24.74-49.49-24.74-63.8a56.64,56.64,0,0,1,2.61-17"></path>
      <path class="cls-2" d="M359.49,196c-12.79,27.72-32.25,59.16-40.55,72.2a4.7,4.7,0,0,1-7.95,0c-3.84-6-10.08-16-16.94-27.77"></path>
      <path class="cls-2" d="M270.48,122.2a56.6,56.6,0,0,1,101.08,35c0,5.27-1.61,12.1-4.29,19.8"></path>
      <path class="cls-2" d="M261,140.16H202.85V99.25a9.74,9.74,0,0,1,9.75-9.75h9.48L227,74.57h29.49l4.88,14.93h14.16L287.8,59.94h54.37L354.48,89.5h14.28l4.73-14.93H403l4.88,14.93h9.5a9.74,9.74,0,0,1,9.75,9.75l-.67,40.91h-38"></path>
    </g>
  </g>
</svg>
